<svg width="149" xmlns="http://www.w3.org/2000/svg" height="21" id="screenshot-8bfd0f72-8396-8073-8007-2eed0ac8e3ff" viewBox="0 0 149 21" xmlns:xlink="http://www.w3.org/1999/xlink" fill="none" version="1.1"><g id="shape-8bfd0f72-8396-8073-8007-2eed0ac8e3ff" width="695" height="98" rx="0" ry="0" style="fill: rgb(0, 0, 0);"><g id="shape-8bfd0f72-8396-8073-8007-2eed0acbc9fa" style="display: none;"><g class="fills" id="fills-8bfd0f72-8396-8073-8007-2eed0acbc9fa"><rect width="149" height="21" x="0" transform="matrix(1.000000, 0.000000, 0.000000, 1.000000, 0.000000, 0.000000)" style="fill: none;" ry="0" fill="none" rx="0" y="0"/></g></g><g id="shape-8bfd0f72-8396-8073-8007-2eed0acc937e"><defs><linearGradient x1="119.323" y1="91.799" x2="136.791" y2="-31.84" id="render-3-a" gradientUnits="userSpaceOnUse" gradientTransform="matrix(0.214388, 0.000000, 0.000000, 0.214286, 0.000000, -0.000000)"><stop stop-color="#FFC8AB"/><stop offset="1" stop-color="#FEAFAC"/></linearGradient></defs><g class="fills" id="fills-8bfd0f72-8396-8073-8007-2eed0acc937e"><path d="M0,0L4.716552734375,0L11.24200439453125,16.03125L17.79425048828125,0L22.5107421875,0L13.345703125,21L9.1383056640625,21L0,0Z" fill="url(#render-3-a)" style="fill: url(&quot;#render-3-a&quot;);"/></g></g><g id="shape-8bfd0f72-8396-8073-8007-2eed0acd2f30"><defs><linearGradient x1="119.323" y1="91.799" x2="136.791" y2="-31.84" id="render-4-b" gradientUnits="userSpaceOnUse" gradientTransform="matrix(0.214388, 0.000000, 0.000000, 0.214286, 0.000000, 0.000000)"><stop stop-color="#FFC8AB"/><stop offset="1" stop-color="#FEAFAC"/></linearGradient></defs><g class="fills" id="fills-8bfd0f72-8396-8073-8007-2eed0acd2f30"><path d="M22.9747314453125,0L27.12017822265625,0L18.0438232421875,21L13.8826904296875,21L22.9747314453125,0Z" fill="url(#render-4-b)" style="fill: url(&quot;#render-4-b&quot;);"/></g></g><g id="shape-8bfd0f72-8396-8073-8007-2eed0acdf01e"><defs><linearGradient x1="119.323" y1="91.799" x2="136.791" y2="-31.84" id="render-5-c" gradientUnits="userSpaceOnUse" gradientTransform="matrix(0.214388, 0.000000, 0.000000, 0.214286, -0.000000, -0.000000)"><stop stop-color="#FFC8AB"/><stop offset="1" stop-color="#FEAFAC"/></linearGradient></defs><g class="fills" id="fills-8bfd0f72-8396-8073-8007-2eed0acdf01e"><path d="M51.158447265625,0L46.9107666015625,0L39.29998779296875,7.63397216796875L31.689208984375,0L27.65606689453125,0L18.65179443359375,21L31.689208984375,21L31.689208984375,5.8795166015625L39.29998779296875,13.20538330078125L46.9107666015625,5.8795166015625L46.9107666015625,21L51.158447265625,21L51.158447265625,0Z" fill="url(#render-5-c)" style="fill: url(&quot;#render-5-c&quot;);"/></g></g><g id="shape-8bfd0f72-8396-8073-8007-2eed0ace7d16"><defs><linearGradient x1="119.323" y1="91.799" x2="136.791" y2="-31.84" id="render-6-d" gradientUnits="userSpaceOnUse" gradientTransform="matrix(0.214388, 0.000000, 0.000000, 0.214286, 0.000000, -0.000000)"><stop stop-color="#FFC8AB"/><stop offset="1" stop-color="#FEAFAC"/></linearGradient></defs><g class="fills" id="fills-8bfd0f72-8396-8073-8007-2eed0ace7d16"><path d="M63.60223388671875,0L51.7747802734375,0L51.6676025390625,21L55.39306640625,21L56.74261474609375,17.4664306640625L61.76190185546875,4.42034912109375L65.53192138671875,13.959716796875L66.92608642578125,17.4664306640625L68.32025146484375,21L72.0345458984375,21L63.60223388671875,0Z" fill="url(#render-6-d)" style="fill: url(&quot;#render-6-d&quot;);"/></g></g><g id="shape-8bfd0f72-8396-8073-8007-2eed0acead50"><defs><linearGradient x1="119.323" y1="91.799" x2="136.791" y2="-31.84" id="render-7-e" gradientUnits="userSpaceOnUse" gradientTransform="matrix(0.214388, 0.000000, 0.000000, 0.214286, -0.000000, -0.000000)"><stop stop-color="#FFC8AB"/><stop offset="1" stop-color="#FEAFAC"/></linearGradient></defs><g class="fills" id="fills-8bfd0f72-8396-8073-8007-2eed0acead50"><path d="M72.4365234375,0L76.6842041015625,0L76.6842041015625,17.27685546875L88.864013671875,17.27685546875L88.864013671875,21L72.4365234375,21L72.4365234375,0Z" fill="url(#render-7-e)" style="fill: url(&quot;#render-7-e&quot;);"/></g></g><g id="shape-8bfd0f72-8396-8073-8007-2eed0acfbf99"><defs><linearGradient x1="506.998" y1="94.33" x2="516.631" y2="20.96" id="render-8-f" gradientUnits="userSpaceOnUse" gradientTransform="matrix(0.214388, 0.000000, 0.000000, 0.214286, 0.000000, -0.000000)"><stop stop-color="#FFC8AB"/><stop offset="1" stop-color="#FEAFAC"/></linearGradient></defs><g class="fills" id="fills-8bfd0f72-8396-8073-8007-2eed0acfbf99"><path d="M92.40142822265625,14.992919921875C92.40142822265625,14.169189453125,92.5557861328125,13.40228271484375,92.8642578125,12.692138671875C93.1729736328125,11.97698974609375,93.61871337890625,11.35797119140625,94.20166015625,10.83526611328125C94.78948974609375,10.3074951171875,95.50469970703125,9.89324951171875,96.3472900390625,9.59234619140625C97.1947021484375,9.29150390625,98.15240478515625,9.14105224609375,99.2203369140625,9.14105224609375C100.1558837890625,9.14105224609375,101.01318359375,9.23724365234375,101.79205322265625,9.4295654296875C102.57586669921875,9.61700439453125,103.30328369140625,9.905517578125,103.97430419921875,10.295166015625L102.90155029296875,12.07061767578125C102.70068359375,11.9375,102.468017578125,11.81915283203125,102.20355224609375,11.715576171875C101.94390869140625,11.612060546875,101.66473388671875,11.52569580078125,101.36590576171875,11.4566650390625C101.07196044921875,11.38262939453125,100.76580810546875,11.325927734375,100.44744873046875,11.2864990234375C100.1337890625,11.24700927734375,99.8228759765625,11.22723388671875,99.51416015625,11.22723388671875C98.7696533203125,11.22723388671875,98.10589599609375,11.321044921875,97.52301025390625,11.5084228515625C96.9400634765625,11.69091796875,96.44757080078125,11.9498291015625,96.04608154296875,12.28521728515625C95.64923095703125,12.61566162109375,95.34539794921875,13.0126953125,95.13494873046875,13.47625732421875C94.92913818359375,13.9349365234375,94.826171875,14.4404296875,94.826171875,14.992919921875C94.826171875,15.56494140625,94.93402099609375,16.090087890625,95.14947509765625,16.568603515625C95.36517333984375,17.047119140625,95.67626953125,17.4613037109375,96.08270263671875,17.8115234375C96.49407958984375,18.15673828125,96.993896484375,18.427978515625,97.5816650390625,18.625244140625C98.17449951171875,18.817626953125,98.8431396484375,18.913818359375,99.5877685546875,18.913818359375C99.9256591796875,18.913818359375,100.26141357421875,18.88916015625,100.59423828125,18.83984375C100.92742919921875,18.79052734375,101.2484130859375,18.723876953125,101.556884765625,18.64013671875C101.87030029296875,18.55126953125,102.1717529296875,18.44775390625,102.46075439453125,18.329345703125C102.749755859375,18.2060546875,103.01922607421875,18.0728759765625,103.26898193359375,17.9298095703125L104.341796875,19.705322265625C103.7147216796875,20.1097412109375,102.9898681640625,20.4278564453125,102.1668701171875,20.65966796875C101.34381103515625,20.8865966796875,100.46954345703125,21,99.5435791015625,21C98.3629150390625,21,97.3270263671875,20.84716796875,96.43536376953125,20.541259765625C95.5439453125,20.2305908203125,94.79937744140625,19.806396484375,94.20166015625,19.268798828125C93.60394287109375,18.726318359375,93.1533203125,18.090087890625,92.84967041015625,17.3602294921875C92.5509033203125,16.6253662109375,92.40142822265625,15.836181640625,92.40142822265625,14.992919921875Z" fill="url(#render-8-f)" style="fill: url(&quot;#render-8-f&quot;);"/></g></g><g id="shape-8bfd0f72-8396-8073-8007-2eed0ad037b0"><defs><linearGradient x1="506.998" y1="94.33" x2="516.631" y2="20.96" id="render-9-g" gradientUnits="userSpaceOnUse" gradientTransform="matrix(0.214388, 0.000000, 0.000000, 0.214286, -0.000000, 0.000000)"><stop stop-color="#FFC8AB"/><stop offset="1" stop-color="#FEAFAC"/></linearGradient></defs><g class="fills" id="fills-8bfd0f72-8396-8073-8007-2eed0ad037b0"><path d="M107.30230712890625,8.57147216796875L109.47747802734375,8.57147216796875L109.47747802734375,20.8447265625L107.30230712890625,20.8447265625L107.30230712890625,8.57147216796875Z" fill="url(#render-9-g)" style="fill: url(&quot;#render-9-g&quot;);"/></g></g><g id="shape-8bfd0f72-8396-8073-8007-2eed0ad15752"><defs><linearGradient x1="506.998" y1="94.33" x2="516.631" y2="20.96" id="render-10-h" gradientUnits="userSpaceOnUse" gradientTransform="matrix(0.214388, 0.000000, 0.000000, 0.214286, -0.000000, -0.000000)"><stop stop-color="#FFC8AB"/><stop offset="1" stop-color="#FEAFAC"/></linearGradient></defs><g class="fills" id="fills-8bfd0f72-8396-8073-8007-2eed0ad15752"><path d="M112.349853515625,16.479736328125C112.349853515625,15.853515625,112.474853515625,15.2666015625,112.724609375,14.7191162109375C112.97930908203125,14.171630859375,113.3392333984375,13.69329833984375,113.80474853515625,13.283935546875C114.27508544921875,12.87457275390625,114.8408203125,12.55157470703125,115.5020751953125,12.31475830078125C116.1683349609375,12.07806396484375,116.915283203125,11.95965576171875,117.7432861328125,11.95965576171875C118.57098388671875,11.95965576171875,119.3155517578125,12.07806396484375,119.9769287109375,12.31475830078125C120.643310546875,12.55157470703125,121.208984375,12.87457275390625,121.67425537109375,13.283935546875C122.14459228515625,13.69329833984375,122.504638671875,14.171630859375,122.7545166015625,14.7191162109375C123.00921630859375,15.2666015625,123.1365966796875,15.853515625,123.1365966796875,16.479736328125C123.1365966796875,17.106201171875,123.00921630859375,17.693115234375,122.7545166015625,18.240478515625C122.504638671875,18.7880859375,122.14459228515625,19.266357421875,121.67425537109375,19.67578125C121.208984375,20.085205078125,120.643310546875,20.408203125,119.9769287109375,20.6448974609375C119.3155517578125,20.881591796875,118.57098388671875,21,117.7432861328125,21C116.915283203125,21,116.1683349609375,20.881591796875,115.5020751953125,20.6448974609375C114.8408203125,20.408203125,114.27508544921875,20.085205078125,113.80474853515625,19.67578125C113.3392333984375,19.266357421875,112.97930908203125,18.7880859375,112.724609375,18.240478515625C112.474853515625,17.693115234375,112.349853515625,17.106201171875,112.349853515625,16.479736328125ZM114.635009765625,16.479736328125C114.635009765625,16.830078125,114.70361328125,17.1629638671875,114.8408203125,17.478515625C114.98272705078125,17.789306640625,115.18621826171875,18.0655517578125,115.4505615234375,18.30712890625C115.72003173828125,18.5439453125,116.04595947265625,18.7337646484375,116.427978515625,18.8768310546875C116.81494140625,19.014892578125,117.2532958984375,19.083984375,117.7432861328125,19.083984375C118.23309326171875,19.083984375,118.66900634765625,19.014892578125,119.05120849609375,18.8768310546875C119.43817138671875,18.7337646484375,119.76385498046875,18.5439453125,120.02838134765625,18.30712890625C120.2978515625,18.0655517578125,120.50115966796875,17.789306640625,120.6383056640625,17.478515625C120.7802734375,17.1629638671875,120.8514404296875,16.830078125,120.8514404296875,16.479736328125C120.8514404296875,16.129638671875,120.7802734375,15.7967529296875,120.6383056640625,15.481201171875C120.50115966796875,15.16552734375,120.2978515625,14.88916015625,120.02838134765625,14.652587890625C119.76385498046875,14.410888671875,119.43817138671875,14.220947265625,119.05120849609375,14.0830078125C118.66900634765625,13.93988037109375,118.23309326171875,13.86834716796875,117.7432861328125,13.86834716796875C117.2532958984375,13.86834716796875,116.81494140625,13.93988037109375,116.427978515625,14.0830078125C116.04595947265625,14.220947265625,115.72003173828125,14.410888671875,115.4505615234375,14.652587890625C115.18621826171875,14.88916015625,114.98272705078125,15.16552734375,114.8408203125,15.481201171875C114.70361328125,15.7967529296875,114.635009765625,16.129638671875,114.635009765625,16.479736328125Z" fill="url(#render-10-h)" style="fill: url(&quot;#render-10-h&quot;);"/></g></g><g id="shape-8bfd0f72-8396-8073-8007-2eed0ad236a1"><defs><linearGradient x1="506.998" y1="94.33" x2="516.631" y2="20.96" id="render-11-i" gradientUnits="userSpaceOnUse" gradientTransform="matrix(0.214388, 0.000000, 0.000000, 0.214286, 0.000000, -0.000000)"><stop stop-color="#FFC8AB"/><stop offset="1" stop-color="#FEAFAC"/></linearGradient></defs><g class="fills" id="fills-8bfd0f72-8396-8073-8007-2eed0ad236a1"><path d="M125.9354248046875,12.107666015625L128.1031494140625,12.107666015625L128.1031494140625,16.368896484375C128.1031494140625,16.7733154296875,128.14727783203125,17.1431884765625,128.23541259765625,17.478515625C128.32354736328125,17.8089599609375,128.472900390625,18.092529296875,128.6837158203125,18.329345703125C128.899169921875,18.566162109375,129.1832275390625,18.7509765625,129.53582763671875,18.88427734375C129.89349365234375,19.012451171875,130.33685302734375,19.0765380859375,130.865966796875,19.0765380859375C131.11578369140625,19.0765380859375,131.36810302734375,19.0494384765625,131.62274169921875,18.9951171875C131.88238525390625,18.94091796875,132.12982177734375,18.866943359375,132.364990234375,18.773193359375C132.60015869140625,18.674560546875,132.8179931640625,18.55859375,133.01885986328125,18.425537109375C133.22467041015625,18.2923583984375,133.40106201171875,18.1468505859375,133.5479736328125,17.989013671875L133.5479736328125,12.107666015625L135.722900390625,12.107666015625L135.722900390625,20.8447265625L133.5479736328125,20.8447265625L133.5479736328125,20.097412109375C133.013916015625,20.41796875,132.47747802734375,20.6473388671875,131.938720703125,20.785400390625C131.4000244140625,20.923583984375,130.88800048828125,20.99267578125,130.403076171875,20.99267578125C129.609375,20.99267578125,128.92852783203125,20.896484375,128.36041259765625,20.7041015625C127.7969970703125,20.51171875,127.33404541015625,20.2330322265625,126.9715576171875,19.8681640625C126.61395263671875,19.498291015625,126.35198974609375,19.046875,126.1854248046875,18.5142822265625C126.018798828125,17.976806640625,125.9354248046875,17.365234375,125.9354248046875,16.6796875L125.9354248046875,12.107666015625Z" fill="url(#render-11-i)" style="fill: url(&quot;#render-11-i&quot;);"/></g></g><g id="shape-8bfd0f72-8396-8073-8007-2eed0ad339dd"><defs><linearGradient x1="506.998" y1="94.33" x2="516.631" y2="20.96" id="render-12-j" gradientUnits="userSpaceOnUse" gradientTransform="matrix(0.214388, 0.000000, 0.000000, 0.214286, 0.000000, -0.000000)"><stop stop-color="#FFC8AB"/><stop offset="1" stop-color="#FEAFAC"/></linearGradient></defs><g class="fills" id="fills-8bfd0f72-8396-8073-8007-2eed0ad339dd"><path d="M138.4190673828125,16.516845703125C138.4190673828125,15.8214111328125,138.54876708984375,15.195068359375,138.808349609375,14.6376953125C139.06805419921875,14.0755615234375,139.42559814453125,13.59716796875,139.8812255859375,13.2025146484375C140.34173583984375,12.80303955078125,140.88543701171875,12.49725341796875,141.51251220703125,12.28521728515625C142.14447021484375,12.0682373046875,142.8277587890625,11.95965576171875,143.5625,11.95965576171875C143.8760986328125,11.95965576171875,144.1845703125,11.97943115234375,144.4884033203125,12.01885986328125C144.79693603515625,12.058349609375,145.0908203125,12.11260986328125,145.3702392578125,12.181640625C145.65423583984375,12.25067138671875,145.91876220703125,12.33453369140625,146.16363525390625,12.43316650390625C146.41363525390625,12.52691650390625,146.63397216796875,12.6304931640625,146.82501220703125,12.74383544921875L146.82501220703125,8.57147216796875L149,8.57147216796875L149,20.8447265625L146.82501220703125,20.8447265625L146.82501220703125,20.0234375C146.63397216796875,20.1566162109375,146.40869140625,20.282470703125,146.14910888671875,20.4007568359375C145.889404296875,20.51904296875,145.610107421875,20.6226806640625,145.3114013671875,20.71142578125C145.0125732421875,20.80029296875,144.70147705078125,20.869384765625,144.37823486328125,20.9185791015625C144.05987548828125,20.972900390625,143.74383544921875,21,143.43017578125,21C142.69549560546875,21,142.01947021484375,20.8916015625,141.40228271484375,20.674560546875C140.7900390625,20.45751953125,140.2633056640625,20.1517333984375,139.82244873046875,19.757080078125C139.3817138671875,19.362548828125,139.0362548828125,18.8916015625,138.78631591796875,18.3441162109375C138.54150390625,17.791748046875,138.4190673828125,17.1826171875,138.4190673828125,16.516845703125ZM140.7042236328125,16.516845703125C140.7042236328125,16.866943359375,140.77288818359375,17.197509765625,140.9100341796875,17.5081787109375C141.052001953125,17.81884765625,141.25286865234375,18.092529296875,141.51251220703125,18.329345703125C141.77703857421875,18.5611572265625,142.09307861328125,18.74609375,142.46026611328125,18.88427734375C142.8326416015625,19.017333984375,143.2490234375,19.083984375,143.70953369140625,19.083984375C144.00341796875,19.083984375,144.29736328125,19.0567626953125,144.59130859375,19.0025634765625C144.88525390625,18.943359375,145.1669921875,18.862060546875,145.43621826171875,18.7584228515625C145.71063232421875,18.6549072265625,145.96533203125,18.529052734375,146.20050048828125,18.381103515625C146.44036865234375,18.233154296875,146.64862060546875,18.06787109375,146.82501220703125,17.885498046875L146.82501220703125,14.859619140625C146.6046142578125,14.68212890625,146.371826171875,14.53173828125,146.12701416015625,14.408447265625C145.88189697265625,14.28515625,145.63214111328125,14.18408203125,145.37750244140625,14.1051025390625C145.122802734375,14.026123046875,144.86553955078125,13.969482421875,144.60589599609375,13.9349365234375C144.34625244140625,13.8955078125,144.0941162109375,13.87579345703125,143.84912109375,13.87579345703125C143.34930419921875,13.87579345703125,142.9036865234375,13.94482421875,142.51171875,14.0830078125C142.124755859375,14.216064453125,141.7965087890625,14.401123046875,141.52728271484375,14.6376953125C141.2626953125,14.87451171875,141.0592041015625,15.1531982421875,140.9173583984375,15.4736328125C140.77520751953125,15.7943115234375,140.7042236328125,16.1419677734375,140.7042236328125,16.516845703125Z" fill="url(#render-12-j)" style="fill: url(&quot;#render-12-j&quot;);"/></g></g><g id="shape-8bfd0f72-8396-8073-8007-2eed0ad382aa"><defs fill="none" style="fill: rgb(0, 0, 0);"/></g></g></svg>